# xmcd
#
# Track frame offsets: 
#        150
#        16687
#        31200
#        49950
#        68325
#        80250
#        96375
#        107625
#        121130
#        135305
#
# Disc length: 2042 seconds
#
# Revision: 0
# Processed by: cddbd v1.4PL0 Copyright (c) Steve Scherf et al.
# Submitted via: ExactAudioCopy v0.90b4
#
DISCID=6f07f80a
DTITLE=Various Artist - Beach Music Beat
DYEAR=1999
DGENRE=Blues
TTITLE0=Kenny Parker and Darrell Nulish - She's The One For Me
TTITLE1=Sugar Ray and The Blue Tones - I Could Have (Loved You)
TTITLE2=Sweet Betty - You're A Two Timing Man
TTITLE3=Mick Martin and The Blues Rockers - Can't Get Enough
TTITLE4=Jackie Payne - Hit The Ground Running
TTITLE5=Ronnie Earl - I Want To Shout About It
TTITLE6=Miki Honeycutt - Soul Deep
TTITLE7=Roomful of Blues - Yes Indeed!
TTITLE8=Mike Morgan and The Crawl - If My Baby Quit Me
TTITLE9=Joe Coronado - Know Who Your Friends Are
EXTD=
EXTT0=
EXTT1=
EXTT2=
EXTT3=
EXTT4=
EXTT5=
EXTT6=
EXTT7=
EXTT8=
EXTT9=
PLAYORDER=
